<svg width="30.000000" height="30.000000" viewBox="0 0 30 30" fill="none" xmlns="http://www.w3.org/2000/svg" xmlns:xlink="http://www.w3.org/1999/xlink">
	<desc>
			Created with Pixso.
	</desc>
	<defs/>
	<mask id="mask3_184" mask-type="alpha" maskUnits="userSpaceOnUse" x="0.000000" y="0.000000" width="30.000000" height="30.000000">
		<rect id="Bounding box" width="30.000000" height="30.000000" fill="#D9D9D9" fill-opacity="1.000000"/>
	</mask>
	<g mask="url(#mask3_184)">
		<path id="call" d="M24.3003 25.625C21.9446 25.625 19.5781 25.0771 17.2007 23.9819C14.8232 22.8865 12.637 21.3413 10.6418 19.3462C8.65454 17.3508 7.11328 15.1667 6.01807 12.7932C4.92261 10.4199 4.375 8.05518 4.375 5.69946C4.375 5.32446 4.5 5.01001 4.75 4.7561C5 4.50195 5.3125 4.375 5.6875 4.375L9.7644 4.375C10.0801 4.375 10.3586 4.47803 10.5996 4.68384C10.8408 4.88989 10.9944 5.14429 11.0601 5.44702L11.7764 9.125C11.8262 9.46631 11.8157 9.75952 11.7451 10.0049C11.6746 10.25 11.5481 10.4558 11.3652 10.6226L8.47827 13.4326C8.94312 14.2837 9.47388 15.0886 10.0708 15.8474C10.6677 16.6062 11.314 17.3308 12.0095 18.0217C12.6956 18.7075 13.4246 19.3445 14.197 19.9326C14.9695 20.5208 15.8037 21.0681 16.6995 21.5745L19.5049 18.7451C19.7002 18.5417 19.937 18.3989 20.2151 18.3174C20.4932 18.2356 20.782 18.2156 21.0818 18.2573L24.5527 18.9639C24.8684 19.0474 25.1262 19.2083 25.3257 19.447C25.5251 19.6858 25.625 19.9568 25.625 20.2595L25.625 24.3125C25.625 24.6875 25.498 25 25.2439 25.25C24.99 25.5 24.6753 25.625 24.3003 25.625Z" fill="#262523" fill-opacity="1.000000" fill-rule="nonzero"/>
	</g>
</svg>
