<svg width="24.000000" height="24.000000" viewBox="0 0 24 24" fill="none" xmlns="http://www.w3.org/2000/svg" xmlns:xlink="http://www.w3.org/1999/xlink">
	<desc>
			Created with Pixso.
	</desc>
	<defs/>
	<path id="Icon" d="M10.5 4C10.5 3.44 10.94 3 11.5 3L12.5 3C13.05 3 13.5 3.44 13.5 4C13.5 4.55 13.05 5 12.5 5L11.5 5C10.94 5 10.5 4.55 10.5 4ZM3 15C3 10.02 7.02 6 12 6C16.97 6 21 10.02 21 15L21 17C21 17.55 20.55 18 20 18L4 18C3.44 18 3 17.55 3 17L3 15ZM1 20C1 19.44 1.44 19 2 19L22 19C22.55 19 23 19.44 23 20C23 20.55 22.55 21 22 21L2 21C1.44 21 1 20.55 1 20Z" fill="#FFFFFF" fill-opacity="1.000000" fill-rule="evenodd"/>
</svg>
