<svg width="15.000000" height="14.615234" viewBox="0 0 15 14.6152" fill="none" xmlns="http://www.w3.org/2000/svg" xmlns:xlink="http://www.w3.org/1999/xlink">
	<desc>
			Created with Pixso.
	</desc>
	<defs/>
	<path id="Icon" d="M7.5 7C6.53711 7 5.71387 6.65723 5.02832 5.97168C4.34277 5.28662 4 4.4624 4 3.5C4 2.5376 4.34277 1.71338 5.02832 1.02832C5.71387 0.342773 6.53711 0 7.5 0C8.46289 0 9.28613 0.342773 9.97168 1.02832C10.6572 1.71338 11 2.5376 11 3.5C11 4.4624 10.6572 5.28662 9.97168 5.97168C9.28613 6.65723 8.46289 7 7.5 7ZM13.4805 14.6152L1.51953 14.6152C1.09766 14.6152 0.739258 14.4678 0.443359 14.1719C0.147461 13.8765 0 13.5181 0 13.0962L0 12.3921C0 11.9023 0.132812 11.4492 0.399414 11.0317C0.665039 10.6143 1.02051 10.2935 1.46582 10.0693C2.4541 9.58447 3.45117 9.22119 4.45703 8.979C5.46289 8.73633 6.47656 8.61523 7.5 8.61523C8.52344 8.61523 9.53711 8.73633 10.543 8.979C11.5488 9.22119 12.5459 9.58447 13.5342 10.0693C13.9795 10.2935 14.335 10.6143 14.6006 11.0317C14.8672 11.4492 15 11.9023 15 12.3921L15 13.0962C15 13.5181 14.8525 13.8765 14.5566 14.1719C14.2607 14.4678 13.9023 14.6152 13.4805 14.6152ZM1.5 13.1152L13.5 13.1152L13.5 12.3921C13.5 12.1895 13.4414 12.002 13.3242 11.8296C13.207 11.6572 13.0479 11.5166 12.8457 11.4077C11.9844 10.9834 11.1064 10.6616 10.2109 10.4434C9.31543 10.2246 8.41211 10.1152 7.5 10.1152C6.58789 10.1152 5.68457 10.2246 4.78906 10.4434C3.89355 10.6616 3.01562 10.9834 2.1543 11.4077C1.95215 11.5166 1.79297 11.6572 1.67578 11.8296C1.55859 12.002 1.5 12.1895 1.5 12.3921L1.5 13.1152ZM7.5 5.5C8.0498 5.5 8.52051 5.3042 8.91211 4.9126C9.30371 4.521 9.5 4.0498 9.5 3.5C9.5 2.9502 9.30371 2.479 8.91211 2.0874C8.52051 1.6958 8.0498 1.5 7.5 1.5C6.9502 1.5 6.47949 1.6958 6.08789 2.0874C5.69629 2.479 5.5 2.9502 5.5 3.5C5.5 4.0498 5.69629 4.521 6.08789 4.9126C6.47949 5.3042 6.9502 5.5 7.5 5.5Z" fill="#FFFFFF" fill-opacity="1.000000" fill-rule="nonzero"/>
</svg>
