<svg width="133.150635" height="48.000000" viewBox="0 0 133.151 48" fill="none" xmlns="http://www.w3.org/2000/svg" xmlns:xlink="http://www.w3.org/1999/xlink">
	<desc>
			Created with Pixso.
	</desc>
	<defs>
		<clipPath id="clip3_18924">
			<rect id="logo-2 1" width="133.150665" height="48.000000" fill="white" fill-opacity="0"/>
		</clipPath>
	</defs>
	<rect id="logo-2 1" width="133.150665" height="48.000000" fill="#FFFFFF" fill-opacity="0"/>
	<g clip-path="url(#clip3_18924)">
		<path id="Vector" d="M2.92749 10.9385L2.92749 3.35742L7.80664 3.35742C11.4846 3.35742 13.8865 3.6582 13.8865 7.11035C13.8865 10.6387 11.4846 10.9385 7.80664 10.9385L2.92749 10.9385ZM0 24.2998L2.92749 24.2998L2.92749 13.6416L7.80664 13.6416C13.4363 13.6416 16.9641 11.915 16.9641 7.11035C16.9641 2.38184 13.4363 0.655273 7.80664 0.655273L0 0.655273L0 24.2998Z" fill="#FFFFFF" fill-opacity="1.000000" fill-rule="evenodd"/>
		<path id="Vector" d="M41.2092 21.748L41.2092 5.91016L38.1316 5.91016L38.1316 15.8936C38.1316 19.0459 36.7056 21.6738 32.2769 21.6738C29.5747 21.6738 28.0735 19.9473 28.0735 16.5693L28.0735 5.91016L24.9958 5.91016L24.9958 16.6445C24.9958 21.2227 27.5479 24.3008 32.2769 24.3008C35.6548 24.3008 37.3811 22.7988 38.0566 20.7725L38.0566 21.6738C38.0566 23.25 39.1829 24.376 40.7593 24.376L43.5364 24.376L43.5364 21.8232L41.2092 21.8232L41.2092 21.748Z" fill="#FFFFFF" fill-opacity="1.000000" fill-rule="evenodd"/>
		<path id="Vector" d="M56.4473 15.293C56.4473 11.3145 59.1494 8.38672 63.0525 8.38672C67.1812 8.38672 69.5078 11.2393 69.5078 15.293C69.5078 19.2705 67.2561 22.2734 63.0525 22.2734C59.1494 22.2734 56.4473 19.1211 56.4473 15.293ZM51.0427 3.35742L53.3696 3.35742L53.3696 24.2246L56.4473 24.2246L56.4473 19.3457C57.4231 23.1738 59.9001 24.75 63.2778 24.75C68.3823 24.75 72.5854 20.5469 72.5854 15.293C72.5854 10.1133 68.3823 5.91016 63.2778 5.91016C59.9001 5.91016 57.4231 7.48633 56.4473 11.3145L56.4473 3.35742C56.4473 1.78125 55.3213 0.655273 53.7449 0.655273L51.0427 0.655273L51.0427 3.35742Z" fill="#FFFFFF" fill-opacity="1.000000" fill-rule="evenodd"/>
		<path id="Vector" d="M79.7166 24.2998L87.5984 24.2998L87.5984 21.748L85.2715 21.748L85.2715 2.75684C85.2715 1.18066 83.8452 0.0546875 82.3438 0.0546875L79.7917 0.0546875L79.7917 2.60645L82.1189 2.60645L82.1189 21.748L79.7917 21.748L79.7917 24.2998L79.7166 24.2998Z" fill="#FFFFFF" fill-opacity="1.000000" fill-rule="evenodd"/>
		<path id="Vector" d="M103.737 21.748L103.737 8.6123C103.737 7.03613 102.611 5.91016 101.034 5.91016L95.855 5.91016L95.855 8.46191L100.734 8.46191L100.734 21.748L95.9302 21.748L95.9302 24.3008L108.541 24.3008L108.541 21.748L103.737 21.748ZM104.412 1.55664L103.286 0.430664L100.209 0.430664L99.0078 1.55664L101.71 4.25879L104.412 1.55664Z" fill="#FFFFFF" fill-opacity="1.000000" fill-rule="evenodd"/>
		<path id="Vector" d="M114.771 15.0674C114.771 20.3213 118.674 24.5254 123.854 24.5254C129.483 24.5254 132.786 21.2979 132.861 17.1689L129.558 17.0938C129.033 20.0967 127.832 21.5977 123.854 21.5977C120.176 21.5977 117.999 18.8203 117.999 15.0674C117.999 11.3896 120.176 8.53711 123.854 8.53711C127.832 8.53711 129.108 9.8125 129.558 13.041L132.861 12.9658C132.786 8.83691 129.558 5.60938 123.854 5.60938C118.674 5.60938 114.771 9.8877 114.771 15.0674Z" fill="#FFFFFF" fill-opacity="1.000000" fill-rule="evenodd"/>
		<path id="Vector" d="M117.323 43.291C117.323 43.4414 117.248 43.5918 117.173 43.7422C117.098 43.8916 116.948 43.9668 116.797 43.9668C116.573 43.9668 116.422 43.8916 116.347 43.8164C116.272 43.7422 116.197 43.5918 116.197 43.5166C116.197 43.4414 116.197 43.3662 116.197 43.291C116.197 43.2168 116.197 43.1416 116.197 43.1416C116.047 43.1416 115.822 43.2168 115.672 43.3662C115.447 43.5166 115.296 43.667 115.146 43.8916L115.146 46.8945C115.146 47.0449 115.146 47.1191 115.221 47.1943C115.296 47.2695 115.371 47.3447 115.447 47.3447C115.521 47.3447 115.672 47.4199 115.747 47.4199C115.897 47.4199 115.972 47.4199 116.122 47.4199L116.122 47.7949L113.42 47.7949L113.42 47.4199C113.495 47.4199 113.57 47.4199 113.645 47.4199C113.72 47.4199 113.795 47.4199 113.87 47.3447C113.945 47.3447 114.02 47.2695 114.095 47.1943C114.17 47.1191 114.17 47.0449 114.17 46.8945L114.17 43.7422C114.17 43.667 114.17 43.5166 114.095 43.4414C114.02 43.3662 113.945 43.291 113.87 43.2168C113.795 43.1416 113.72 43.1416 113.645 43.1416C113.57 43.1416 113.495 43.1416 113.345 43.0664L113.345 42.6914L115.071 42.541L115.146 42.6162L115.146 43.291C115.371 42.9912 115.596 42.7656 115.822 42.6914C116.047 42.541 116.347 42.4658 116.573 42.4658C116.797 42.4658 116.948 42.541 117.098 42.6914C117.248 42.8408 117.323 43.0664 117.323 43.291ZM109.517 44.9424C109.216 45.0176 108.991 45.0928 108.766 45.168C108.541 45.2432 108.315 45.3184 108.165 45.4678C108.015 45.6182 107.865 45.6934 107.79 45.9189C107.715 46.0684 107.64 46.2939 107.64 46.5195C107.64 46.8193 107.715 47.0449 107.865 47.1191C108.015 47.2695 108.24 47.3447 108.466 47.3447C108.691 47.3447 108.916 47.2695 109.141 47.1943C109.291 47.0449 109.517 46.9697 109.592 46.7441L109.517 44.9424ZM111.318 47.6455C111.168 47.7197 111.018 47.7197 110.868 47.7949C110.718 47.7949 110.643 47.8701 110.417 47.8701C110.117 47.8701 109.967 47.7949 109.742 47.6455C109.592 47.4951 109.442 47.3447 109.442 47.1191C109.216 47.3447 108.991 47.5703 108.691 47.7197C108.466 47.8701 108.09 47.9453 107.79 47.9453C107.415 47.9453 107.115 47.7949 106.889 47.5703C106.664 47.3447 106.514 47.0449 106.514 46.6689C106.514 46.4443 106.514 46.2939 106.589 46.1436C106.664 45.9941 106.739 45.8438 106.814 45.6934C106.889 45.6182 107.039 45.4678 107.189 45.3936C107.34 45.3184 107.49 45.2432 107.565 45.168C107.715 45.0928 108.015 45.0176 108.541 44.8682C108.991 44.7178 109.366 44.5674 109.517 44.4922L109.517 43.9668C109.517 43.8916 109.517 43.8164 109.517 43.7422C109.517 43.5918 109.442 43.5166 109.366 43.3662C109.291 43.2168 109.216 43.1416 109.066 43.0664C108.916 42.9912 108.766 42.916 108.541 42.916C108.391 42.916 108.24 42.916 108.09 42.9912C107.94 43.0664 107.865 43.0664 107.79 43.1416C107.79 43.2168 107.79 43.291 107.865 43.4414C107.865 43.5918 107.94 43.667 107.94 43.8164C107.94 43.9668 107.865 44.042 107.79 44.1172C107.715 44.1924 107.565 44.2676 107.34 44.2676C107.189 44.2676 107.039 44.1924 106.964 44.1172C106.889 43.9668 106.814 43.8916 106.814 43.7422C106.814 43.5918 106.889 43.4414 106.964 43.291C107.039 43.1416 107.189 42.9912 107.415 42.916C107.565 42.8408 107.79 42.7656 108.015 42.6914C108.24 42.6162 108.466 42.6162 108.691 42.6162C108.991 42.6162 109.216 42.6162 109.442 42.6914C109.667 42.7656 109.817 42.8408 110.042 42.916C110.192 43.0664 110.342 43.2168 110.417 43.4414C110.492 43.667 110.567 43.9668 110.567 44.2676C110.567 44.793 110.567 45.168 110.567 45.543C110.567 45.9189 110.567 46.3691 110.567 46.8193C110.567 46.9697 110.567 47.0449 110.643 47.1191C110.718 47.1943 110.792 47.2695 110.868 47.3447C110.943 47.3447 111.018 47.4199 111.093 47.4199C111.168 47.4199 111.318 47.4199 111.468 47.4199L111.468 47.6455L111.318 47.6455ZM102.686 45.543C102.686 45.0928 102.535 44.793 102.235 44.4922C101.935 44.1924 101.56 44.042 100.959 44.042C100.734 44.042 100.584 44.042 100.434 44.042C100.284 44.042 100.134 44.042 100.059 44.042L100.059 46.5938C100.059 46.8193 100.134 46.9697 100.284 47.1191C100.434 47.1943 100.734 47.2695 101.034 47.2695C101.56 47.2695 101.935 47.1191 102.235 46.8193C102.535 46.5938 102.686 46.1436 102.686 45.543ZM102.01 43.2168C102.16 43.0664 102.235 42.916 102.311 42.7656C102.385 42.6162 102.385 42.3906 102.385 42.165C102.385 41.79 102.311 41.415 102.085 41.1895C101.86 40.9639 101.485 40.8145 101.034 40.8145C100.959 40.8145 100.809 40.8145 100.584 40.8145C100.434 40.8145 100.284 40.8145 100.134 40.8145L100.134 43.667L100.809 43.667C101.109 43.667 101.334 43.667 101.56 43.5918C101.71 43.4414 101.86 43.3662 102.01 43.2168ZM103.211 44.3428C103.436 44.4922 103.587 44.6426 103.737 44.9424C103.887 45.168 103.962 45.4678 103.962 45.7686C103.962 46.1436 103.887 46.3691 103.737 46.6689C103.587 46.8945 103.361 47.1191 103.136 47.2695C102.911 47.4199 102.611 47.5703 102.385 47.6455C102.085 47.7197 101.785 47.7949 101.485 47.7949L98.032 47.7949L98.032 47.3447C98.1069 47.3447 98.2568 47.3447 98.4072 47.2695C98.5574 47.2695 98.7073 47.1943 98.7827 47.1943C98.8577 47.1191 98.9326 47.0449 99.0078 46.9697C99.0828 46.8945 99.0828 46.8193 99.0828 46.6689L99.0828 41.415C99.0828 41.2646 99.0828 41.1895 99.0078 41.1143C98.9326 41.04 98.8577 40.9639 98.7827 40.8896C98.7073 40.8145 98.5574 40.8145 98.4072 40.7393C98.2568 40.7393 98.1819 40.6641 98.1069 40.6641L98.1069 40.2891L101.485 40.2891C101.71 40.2891 102.01 40.2891 102.235 40.3643C102.46 40.4395 102.686 40.5146 102.911 40.6641C103.136 40.8145 103.286 40.9639 103.436 41.1895C103.587 41.415 103.662 41.6396 103.662 41.9404C103.662 42.165 103.587 42.3906 103.512 42.6162C103.436 42.8408 103.286 42.9912 103.136 43.1416C102.986 43.291 102.761 43.3662 102.611 43.5166C102.385 43.5918 102.16 43.667 101.935 43.7422L101.935 43.8164C102.16 43.8164 102.385 43.8916 102.611 43.9668C102.761 44.042 102.986 44.1924 103.211 44.3428ZM90.0752 46.5938C89.7751 46.2188 89.3997 45.7686 89.0244 45.2432C88.6489 44.793 88.2737 44.3428 88.0488 44.042C87.7483 44.2676 87.5984 44.4922 87.448 44.7178C87.2979 44.9424 87.2979 45.2432 87.2979 45.6182C87.2979 46.0684 87.448 46.4443 87.6733 46.7441C87.9734 47.0449 88.2737 47.1943 88.7239 47.1943C88.9492 47.1943 89.2498 47.1191 89.4749 47.0449C89.6997 46.8945 89.925 46.7441 90.0752 46.5938ZM89.6248 41.79C89.6248 41.415 89.5498 41.1895 89.3997 40.9639C89.2498 40.7393 89.0244 40.6641 88.7239 40.6641C88.574 40.6641 88.4238 40.6641 88.3489 40.7393C88.2737 40.8145 88.1238 40.8896 88.0488 40.9639C87.9734 41.04 87.8984 41.1895 87.8984 41.2646C87.8984 41.3398 87.8235 41.4902 87.8235 41.5654C87.8235 41.79 87.8984 42.0156 87.9734 42.3154C88.1238 42.541 88.2737 42.8408 88.574 43.2168C88.9492 42.9912 89.1743 42.7656 89.3247 42.541C89.5498 42.3906 89.6248 42.0908 89.6248 41.79ZM93.303 43.4414C93.0779 43.4414 92.9277 43.5166 92.7024 43.5918C92.4773 43.667 92.3274 43.7422 92.252 43.8916C92.177 43.9668 92.1021 44.1172 92.0269 44.2676C91.9519 44.417 91.877 44.6426 91.7266 44.8682C91.6516 45.0928 91.5015 45.3184 91.4265 45.543C91.3511 45.7686 91.2012 45.9941 91.051 46.1436C91.2012 46.2939 91.3511 46.5195 91.5764 46.6689C91.8015 46.8945 91.9519 46.9697 92.1021 47.1191C92.252 47.1943 92.4023 47.2695 92.7024 47.3447C92.9277 47.4199 93.1528 47.4199 93.303 47.4199L93.303 47.7949L91.2012 47.7949L90.4507 46.8945C90.3005 47.0449 90.2256 47.1191 90.0752 47.2695C89.925 47.4199 89.7751 47.4951 89.6248 47.6455C89.4749 47.7197 89.2498 47.7949 89.0994 47.8701C88.9492 47.9453 88.7239 47.9453 88.4988 47.9453C88.2737 47.9453 87.9734 47.9453 87.7483 47.8701C87.5229 47.7949 87.2979 47.6455 87.0725 47.4951C86.8474 47.3447 86.6975 47.1191 86.6226 46.8945C86.4722 46.6689 86.4722 46.3691 86.4722 45.9941C86.4722 45.543 86.6226 45.168 86.8474 44.8682C87.0725 44.4922 87.5229 44.1924 88.1238 43.7422C87.8235 43.3662 87.5984 43.0664 87.448 42.7656C87.2979 42.4658 87.2229 42.165 87.2229 41.8652C87.2229 41.6396 87.2979 41.415 87.373 41.1895C87.448 40.9639 87.5984 40.8145 87.7483 40.6641C87.8984 40.5146 88.1238 40.4395 88.3489 40.3643C88.574 40.2891 88.7993 40.2891 89.0244 40.2891C89.3247 40.2891 89.5498 40.3643 89.7751 40.4395C90.0002 40.5146 90.1501 40.6641 90.3005 40.8145C90.4507 40.9639 90.5256 41.1143 90.6006 41.2646C90.6758 41.415 90.6758 41.6396 90.6758 41.79C90.6758 42.165 90.5256 42.541 90.3005 42.8408C90.0752 43.1416 89.6997 43.4414 89.2498 43.667C89.5498 44.1172 89.8501 44.4922 90.2256 44.8682C90.5256 45.2432 90.8257 45.6182 91.126 45.9189C91.3511 45.543 91.5015 45.2432 91.6516 44.8682C91.8015 44.5674 91.877 44.2676 91.877 44.042C91.877 43.9668 91.8015 43.8164 91.6516 43.8164C91.5015 43.7422 91.2761 43.667 90.9761 43.667L90.9761 43.291L93.7534 43.291L93.7534 43.4414L93.303 43.4414ZM81.4431 47.4951C81.218 47.5703 80.9927 47.6455 80.8425 47.7197C80.6172 47.7949 80.3921 47.7949 80.0918 47.7949C79.6416 47.7949 79.3413 47.7197 79.1912 47.4951C79.0413 47.2695 78.9658 46.9697 78.9658 46.5938L78.9658 43.1416L78.0654 43.1416L78.0654 42.6162L79.0413 42.6162L79.0413 41.04L80.0168 41.04L80.0168 42.6162L81.4431 42.6162L81.4431 43.1416L80.0168 43.1416L80.0168 45.9941C80.0168 46.2188 80.0168 46.3691 80.0168 46.5195C80.0168 46.6689 80.0918 46.8193 80.0918 46.8945C80.1667 46.9697 80.2422 47.0449 80.3171 47.1191C80.3921 47.1943 80.5422 47.1943 80.7676 47.1943C80.8425 47.1943 80.9927 47.1943 81.1426 47.1943C81.293 47.1943 81.4431 47.1943 81.5181 47.1191L81.5181 47.4951L81.4431 47.4951ZM76.0386 47.7197L73.5615 47.7197L73.5615 47.3447C73.6365 47.3447 73.7114 47.3447 73.7869 47.3447C73.8618 47.3447 73.9368 47.3447 74.0117 47.2695C74.0869 47.2695 74.1619 47.1943 74.2368 47.1191C74.3123 47.0449 74.3123 46.9697 74.3123 46.8193L74.3123 44.1924C74.3123 43.8164 74.2368 43.5166 74.0869 43.3662C73.9368 43.1416 73.7114 43.0664 73.4863 43.0664C73.3364 43.0664 73.1111 43.0664 72.9609 43.1416C72.8108 43.2168 72.6609 43.291 72.5854 43.3662C72.4355 43.4414 72.3606 43.5166 72.2854 43.5918C72.2104 43.667 72.1355 43.7422 72.1355 43.8164L72.1355 46.7441C72.1355 46.8945 72.1355 46.9697 72.2104 47.0449C72.2854 47.1191 72.3604 47.1943 72.4355 47.1943C72.5105 47.1943 72.5854 47.2695 72.6606 47.2695C72.7358 47.2695 72.8108 47.2695 72.886 47.2695L72.886 47.6455L70.4087 47.6455L70.4087 47.2695C70.4839 47.2695 70.5591 47.2695 70.634 47.2695C70.7092 47.2695 70.7842 47.2695 70.8591 47.1943C70.9341 47.1943 71.0093 47.1191 71.0842 47.0449C71.1592 46.9697 71.1592 46.8945 71.1592 46.7441L71.1592 43.5918C71.1592 43.4414 71.1592 43.3662 71.0842 43.291C71.0093 43.2168 70.9341 43.1416 70.8591 43.0664C70.7842 42.9912 70.7092 42.9912 70.634 42.9912C70.5591 42.9912 70.4839 42.9912 70.3337 42.916L70.3337 42.541L72.0601 42.3906L72.1355 42.4658L72.1355 43.2168C72.2104 43.1416 72.2854 43.0664 72.4355 42.916C72.5854 42.7656 72.6609 42.6914 72.8108 42.6162C72.9609 42.541 73.1111 42.4658 73.261 42.3906C73.4114 42.3154 73.6365 42.3154 73.8618 42.3154C74.3123 42.3154 74.6873 42.4658 74.9126 42.7656C75.1377 43.0664 75.2878 43.4414 75.2878 43.9668L75.2878 46.5938C75.2878 46.7441 75.2878 46.8193 75.3628 46.8945C75.4377 46.9697 75.5132 47.0449 75.5881 47.0449C75.6631 47.0449 75.7383 47.1191 75.8132 47.1191C75.8882 47.1191 75.9636 47.1191 76.0386 47.1191L76.0386 47.7197ZM66.4307 44.9424C66.1301 45.0176 65.905 45.0928 65.6797 45.168C65.4546 45.2432 65.2292 45.3184 65.0793 45.4678C64.9292 45.6182 64.7793 45.6934 64.7039 45.9189C64.6289 46.0684 64.554 46.2939 64.554 46.5195C64.554 46.8193 64.6289 47.0449 64.7793 47.1191C64.9292 47.2695 65.1543 47.3447 65.3796 47.3447C65.6047 47.3447 65.8301 47.2695 66.0552 47.1943C66.2053 47.0449 66.4307 46.9697 66.5056 46.7441L66.4307 44.9424ZM68.2319 47.6455C68.082 47.7197 67.9319 47.7197 67.7815 47.7949C67.6316 47.7949 67.5564 47.8701 67.3311 47.8701C67.031 47.8701 66.8806 47.7949 66.6558 47.6455C66.5056 47.4951 66.3552 47.3447 66.3552 47.1191C66.1301 47.3447 65.905 47.5703 65.6047 47.7197C65.3796 47.8701 65.0044 47.9453 64.7039 47.9453C64.3289 47.9453 64.0283 47.7949 63.7283 47.5703C63.5029 47.3447 63.353 47.0449 63.353 46.6689C63.353 46.4443 63.353 46.2939 63.428 46.1436C63.5029 45.9941 63.5781 45.8438 63.6533 45.6934C63.7283 45.6182 63.8784 45.4678 64.0283 45.3936C64.1785 45.3184 64.3289 45.2432 64.4038 45.168C64.554 45.0928 64.8542 45.0176 65.3796 44.8682C65.8301 44.7178 66.2053 44.5674 66.3552 44.4922L66.3552 43.9668C66.3552 43.8916 66.3552 43.8164 66.3552 43.7422C66.3552 43.5918 66.2803 43.5166 66.2053 43.3662C66.1301 43.2168 66.0552 43.1416 65.905 43.0664C65.7551 42.9912 65.6047 42.916 65.3796 42.916C65.2292 42.916 65.0793 42.916 64.9292 42.9912C64.7793 43.0664 64.7039 43.0664 64.6289 43.1416C64.6289 43.2168 64.6289 43.291 64.7039 43.4414C64.7039 43.5918 64.7793 43.667 64.7793 43.8164C64.7793 43.9668 64.7039 44.042 64.6289 44.1172C64.554 44.1924 64.4038 44.2676 64.1785 44.2676C64.0283 44.2676 63.8784 44.1924 63.8032 44.1172C63.7283 43.9668 63.6533 43.8916 63.6533 43.7422C63.6533 43.5918 63.7283 43.4414 63.8032 43.291C63.8784 43.1416 64.0283 42.9912 64.2534 42.916C64.4038 42.8408 64.6289 42.7656 64.8542 42.6914C65.0793 42.6162 65.3047 42.6162 65.5298 42.6162C65.8301 42.6162 66.0552 42.6162 66.2803 42.6914C66.5056 42.7656 66.6555 42.8408 66.8806 42.916C67.031 43.0664 67.1812 43.2168 67.2561 43.4414C67.3311 43.667 67.4065 43.9668 67.4065 44.2676C67.4065 44.793 67.4065 45.168 67.4065 45.543C67.4065 45.9189 67.4065 46.3691 67.4065 46.8193C67.4065 46.9697 67.4065 47.0449 67.4814 47.1191C67.5564 47.1943 67.6316 47.2695 67.7065 47.3447C67.7815 47.3447 67.8569 47.4199 67.9319 47.4199C68.082 47.4199 68.157 47.4199 68.3069 47.4199L68.3069 47.6455L68.2319 47.6455ZM61.3262 43.291C61.3262 43.4414 61.2512 43.5918 61.176 43.7422C61.1011 43.8916 60.9512 43.9668 60.8008 43.9668C60.5757 43.9668 60.4253 43.8916 60.3503 43.8164C60.2754 43.7422 60.2002 43.5918 60.2002 43.5166C60.2002 43.4414 60.2002 43.3662 60.2002 43.291C60.2002 43.2168 60.2002 43.1416 60.2002 43.1416C60.0503 43.1416 59.825 43.2168 59.6748 43.3662C59.4497 43.5166 59.2996 43.667 59.1494 43.8916L59.1494 46.8945C59.1494 47.0449 59.1494 47.1191 59.2244 47.1943C59.2996 47.2695 59.3748 47.3447 59.4497 47.3447C59.5247 47.3447 59.6748 47.4199 59.7498 47.4199C59.8999 47.4199 59.9749 47.4199 60.1252 47.4199L60.1252 47.7949L57.4231 47.7949L57.4231 47.4199C57.498 47.4199 57.573 47.4199 57.6482 47.4199C57.7231 47.4199 57.7981 47.4199 57.8735 47.3447C57.9485 47.3447 58.0234 47.2695 58.0984 47.1943C58.1736 47.1191 58.1736 47.0449 58.1736 46.8945L58.1736 43.7422C58.1736 43.667 58.1736 43.5166 58.0984 43.4414C58.0234 43.3662 57.9485 43.291 57.8735 43.2168C57.7981 43.1416 57.7231 43.1416 57.6482 43.1416C57.573 43.1416 57.498 43.1416 57.3479 43.0664L57.3479 42.6914L59.0745 42.541L59.1494 42.6162L59.1494 43.291C59.3745 42.9912 59.5999 42.7656 59.825 42.6914C60.0503 42.541 60.3503 42.4658 60.5757 42.4658C60.8008 42.4658 60.9507 42.541 61.1011 42.6914C61.2512 42.8408 61.3262 43.0664 61.3262 43.291ZM55.1709 47.6455L53.5195 47.7949L53.4446 47.7197L53.4446 47.0449C53.3696 47.1191 53.2944 47.1943 53.1445 47.3447C53.0691 47.4199 52.9192 47.4951 52.769 47.6455C52.6189 47.7197 52.469 47.7949 52.3186 47.8701C52.1687 47.9453 51.9436 47.9453 51.7183 47.9453C51.2678 47.9453 50.8923 47.7949 50.6672 47.4951C50.4421 47.1943 50.292 46.7441 50.292 46.2188L50.292 43.8164C50.292 43.667 50.292 43.5918 50.2168 43.5166C50.1418 43.4414 50.0669 43.3662 49.9917 43.291C49.9167 43.2168 49.8418 43.2168 49.7664 43.2168C49.6914 43.2168 49.5413 43.2168 49.4663 43.1416L49.4663 42.7656L51.1926 42.6162L51.2678 42.6914L51.2678 46.2188C51.2678 46.5938 51.3428 46.8945 51.4932 47.0449C51.6431 47.1943 51.8682 47.3447 52.0935 47.3447C52.3186 47.3447 52.469 47.3447 52.6189 47.2695C52.769 47.1943 52.9192 47.1191 52.9941 47.0449C53.0691 46.9697 53.1445 46.8945 53.2195 46.8193C53.2944 46.7441 53.3696 46.6689 53.3696 46.5938L53.3696 43.7422C53.3696 43.5918 53.3696 43.5166 53.2944 43.4414C53.2195 43.3662 53.1445 43.291 53.0691 43.2168C52.9941 43.1416 52.9192 43.1416 52.769 43.1416C52.6189 43.1416 52.5439 43.1416 52.3936 43.1416L52.3936 42.7656L54.2703 42.6162L54.3455 42.6914L54.3455 46.7441C54.3455 46.8945 54.3455 46.9697 54.4204 47.0449C54.4954 47.1191 54.5708 47.1943 54.6458 47.2695C54.7207 47.3447 54.7959 47.3447 54.8708 47.3447C54.9458 47.3447 55.021 47.3447 55.1709 47.3447L55.1709 47.6455ZM45.7131 44.9424C45.4128 45.0176 45.1877 45.0928 44.9624 45.168C44.7373 45.2432 44.512 45.3184 44.3621 45.4678C44.2119 45.6182 44.0618 45.6934 43.9866 45.9189C43.9116 46.0684 43.8364 46.2939 43.8364 46.5195C43.8364 46.8193 43.9116 47.0449 44.0618 47.1191C44.2119 47.2695 44.437 47.3447 44.6624 47.3447C44.8875 47.3447 45.1128 47.2695 45.3379 47.1943C45.4878 47.0449 45.7131 46.9697 45.7883 46.7441L45.7131 44.9424ZM47.5146 47.6455C47.3645 47.7197 47.2146 47.7197 47.0642 47.7949C46.9141 47.7949 46.8391 47.8701 46.6138 47.8701C46.3137 47.8701 46.1636 47.7949 45.9382 47.6455C45.7883 47.4951 45.6382 47.3447 45.6382 47.1191C45.4128 47.3447 45.1877 47.5703 44.8875 47.7197C44.6624 47.8701 44.2869 47.9453 43.9866 47.9453C43.6116 47.9453 43.311 47.7949 43.011 47.5703C42.7856 47.3447 42.6355 47.0449 42.6355 46.6689C42.6355 46.4443 42.6355 46.2939 42.7107 46.1436C42.7856 45.9941 42.8606 45.8438 42.936 45.6934C43.011 45.6182 43.1611 45.4678 43.311 45.3936C43.4614 45.3184 43.6116 45.2432 43.6865 45.168C43.8364 45.0928 44.137 45.0176 44.6624 44.8682C45.1128 44.7178 45.4878 44.5674 45.6382 44.4922L45.6382 43.9668C45.6382 43.8916 45.6382 43.8164 45.6382 43.7422C45.6382 43.5918 45.5632 43.5166 45.4878 43.3662C45.4128 43.2168 45.3379 43.1416 45.1877 43.0664C45.0378 42.9912 44.8875 42.916 44.6624 42.916C44.512 42.916 44.3621 42.916 44.2119 42.9912C44.0618 43.0664 43.9866 43.0664 43.9116 43.1416C43.9116 43.2168 43.9116 43.291 43.9866 43.4414C43.9866 43.5918 44.0618 43.667 44.0618 43.8164C44.0618 43.9668 43.9866 44.042 43.9116 44.1172C43.8364 44.1924 43.6865 44.2676 43.4614 44.2676C43.311 44.2676 43.1611 44.1924 43.0859 44.1172C43.011 43.9668 42.936 43.8916 42.936 43.7422C42.936 43.5918 43.011 43.4414 43.0859 43.291C43.1611 43.1416 43.311 42.9912 43.5364 42.916C43.6865 42.8408 43.9116 42.7656 44.137 42.6914C44.3621 42.6162 44.5874 42.6162 44.8125 42.6162C45.1128 42.6162 45.3379 42.6162 45.5632 42.6914C45.7883 42.7656 45.9382 42.8408 46.1636 42.916C46.3137 43.0664 46.4639 43.2168 46.5388 43.4414C46.6138 43.667 46.6887 43.9668 46.6887 44.2676C46.6887 44.793 46.6887 45.168 46.6887 45.543C46.6887 45.9189 46.6887 46.3691 46.6887 46.8193C46.6887 46.9697 46.6887 47.0449 46.7642 47.1191C46.8391 47.1943 46.9141 47.2695 46.9893 47.3447C47.0642 47.3447 47.1392 47.4199 47.2146 47.4199C47.3645 47.4199 47.4397 47.4199 47.5896 47.4199L47.5896 47.6455L47.5146 47.6455ZM40.5339 47.4951C40.3088 47.5703 40.0835 47.6455 39.9333 47.7197C39.708 47.7949 39.4829 47.7949 39.1829 47.7949C38.7324 47.7949 38.4321 47.7197 38.282 47.4951C38.1316 47.2695 38.0566 46.9697 38.0566 46.5938L38.0566 43.1416L37.156 43.1416L37.156 42.6162L38.1316 42.6162L38.1316 41.04L39.1079 41.04L39.1079 42.6162L40.5339 42.6162L40.5339 43.1416L39.1079 43.1416L39.1079 45.9941C39.1079 46.2188 39.1079 46.3691 39.1079 46.5195C39.1079 46.6689 39.1829 46.8193 39.1829 46.8945C39.2578 46.9697 39.333 47.0449 39.408 47.1191C39.4829 47.1943 39.6331 47.1943 39.8584 47.1943C39.9333 47.1943 40.0835 47.1943 40.2334 47.1943C40.3838 47.1943 40.5339 47.1943 40.6089 47.1191L40.6089 47.4951L40.5339 47.4951ZM34.5288 45.2432C34.679 45.3936 34.7539 45.543 34.8291 45.6934C34.9041 45.8438 34.9792 46.0684 34.9792 46.2939C34.9792 46.7441 34.8291 47.1191 34.4539 47.4199C34.0784 47.7197 33.6282 47.8701 33.1025 47.8701C32.8022 47.8701 32.5022 47.7949 32.2769 47.7197C32.0518 47.6455 31.8267 47.4951 31.7515 47.4199L31.6765 47.7197L31.301 47.7197L31.2261 45.9189L31.5264 45.9189C31.5264 46.0684 31.6013 46.2188 31.6765 46.3691C31.7515 46.5195 31.9016 46.7441 31.9768 46.8193C32.1267 46.9697 32.2769 47.1191 32.427 47.1943C32.5771 47.2695 32.8022 47.3447 33.0276 47.3447C33.3276 47.3447 33.6282 47.2695 33.7781 47.1191C33.9285 46.9697 34.0784 46.7441 34.0784 46.4443C34.0784 46.2939 34.0784 46.1436 34.0034 46.0684C33.9285 45.9941 33.853 45.8438 33.7781 45.7686C33.6282 45.6934 33.553 45.6182 33.3276 45.543C33.1777 45.4678 32.9526 45.3936 32.8022 45.3936C32.6523 45.3184 32.427 45.2432 32.2769 45.168C32.0518 45.0928 31.9016 45.0176 31.7515 44.8682C31.6013 44.7178 31.4512 44.5674 31.3762 44.417C31.301 44.2676 31.2261 44.042 31.2261 43.8164C31.2261 43.3662 31.3762 43.0664 31.6765 42.7656C31.9768 42.4658 32.427 42.3154 32.9526 42.3154C33.1777 42.3154 33.3276 42.3154 33.553 42.3906C33.7781 42.4658 33.9285 42.541 34.0784 42.541L34.2285 42.2402L34.604 42.2402L34.679 43.8916L34.3035 43.8916C34.2285 43.5166 34.0784 43.2168 33.853 42.9912C33.6282 42.7656 33.3276 42.6162 32.9526 42.6162C32.6523 42.6162 32.427 42.6914 32.2769 42.8408C32.1267 42.9912 32.0518 43.1416 32.0518 43.3662C32.0518 43.5166 32.0518 43.667 32.1267 43.7422C32.2019 43.8164 32.2769 43.9668 32.3521 43.9668C32.427 44.042 32.5771 44.1172 32.7273 44.1924C32.8774 44.2676 33.1025 44.3428 33.3276 44.417C33.553 44.4922 33.7781 44.5674 34.0034 44.6426C34.2285 45.0176 34.3789 45.168 34.5288 45.2432ZM27.7732 44.6426C27.7732 44.417 27.7732 44.2676 27.6982 44.042C27.6982 43.8164 27.623 43.667 27.5481 43.5166C27.4729 43.3662 27.3228 43.2168 27.2478 43.1416C27.0977 43.0664 26.9475 42.9912 26.7224 42.9912C26.3469 42.9912 26.0466 43.1416 25.8215 43.4414C25.5964 43.7422 25.4463 44.1924 25.4463 44.7178L27.7732 44.7178L27.7732 44.6426ZM28.8992 46.5195C28.6738 46.8945 28.3738 47.2695 28.0735 47.4951C27.6982 47.7197 27.3228 47.8701 26.8723 47.8701C26.4971 47.8701 26.1218 47.7949 25.8215 47.6455C25.5212 47.4951 25.2961 47.2695 25.0708 47.0449C24.8457 46.8193 24.6956 46.5195 24.6206 46.1436C24.5454 45.8438 24.4705 45.4678 24.4705 45.0928C24.4705 44.793 24.5454 44.417 24.6206 44.1172C24.6956 43.8164 24.8457 43.5166 25.0708 43.291C25.2961 43.0664 25.5212 42.8408 25.8215 42.6914C26.1218 42.541 26.4221 42.4658 26.7974 42.4658C27.1726 42.4658 27.4729 42.541 27.7732 42.6162C28.0735 42.7656 28.2236 42.916 28.4487 43.0664C28.5989 43.291 28.749 43.5166 28.824 43.7422C28.8992 43.9668 28.9741 44.2676 28.9741 44.5674L28.9741 44.9424L25.5964 44.9424C25.5964 45.2432 25.5964 45.543 25.6714 45.8438C25.7466 46.1436 25.8215 46.3691 25.9717 46.5938C26.1218 46.8193 26.272 46.9697 26.4971 47.0449C26.7224 47.1943 26.9475 47.1943 27.2478 47.1943C27.5481 47.1943 27.8481 47.1191 28.0735 46.9697C28.2986 46.8193 28.5237 46.5938 28.749 46.2188L28.8992 46.5195ZM19.8916 42.2402C19.8916 41.79 19.7415 41.415 19.5164 41.1895C19.291 40.9639 18.9158 40.8145 18.4653 40.8145L17.5647 40.8145L17.5647 43.9668L18.2402 43.9668C18.6907 43.9668 19.1409 43.8164 19.4412 43.5166C19.6665 43.2168 19.8916 42.7656 19.8916 42.2402ZM22.5938 47.7197L20.6423 47.7197C20.1919 47.0449 19.8164 46.4443 19.4412 45.9189C19.0659 45.3936 18.6907 44.9424 18.3152 44.3428L17.5647 44.3428L17.5647 46.6689C17.5647 46.8193 17.5647 46.8945 17.6396 46.9697C17.7148 47.0449 17.7898 47.1191 17.865 47.1943C17.9399 47.1943 18.0149 47.2695 18.165 47.2695C18.3152 47.2695 18.4653 47.2695 18.5405 47.2695L18.5405 47.6455L15.4629 47.6455L15.4629 47.3447C15.5378 47.3447 15.688 47.3447 15.8381 47.3447C15.9883 47.3447 16.1384 47.2695 16.1384 47.2695C16.2134 47.1943 16.2886 47.1943 16.3635 47.0449C16.4387 46.9697 16.4387 46.8193 16.4387 46.7441L16.4387 41.4902C16.4387 41.3398 16.4387 41.2646 16.3635 41.1895C16.3635 41.1143 16.2134 41.04 16.1384 40.9639C16.0635 40.9639 15.9133 40.8896 15.8381 40.8896C15.688 40.8896 15.613 40.8145 15.4629 40.8145L15.4629 40.4395L18.8408 40.4395C19.1409 40.4395 19.4412 40.4395 19.7415 40.5146C20.0417 40.5889 20.2668 40.6641 20.4922 40.8145C20.7173 40.9639 20.8674 41.1143 21.0176 41.3398C21.1677 41.5654 21.2427 41.8652 21.2427 42.165C21.2427 42.4658 21.1677 42.6914 21.0925 42.916C21.0176 43.1416 20.8674 43.291 20.7173 43.5166C20.5671 43.667 20.342 43.8164 20.1919 43.8916C19.9666 43.9668 19.7415 44.1172 19.4412 44.1924C19.8164 44.6426 20.1167 45.0928 20.342 45.3936C20.5671 45.6934 20.8674 46.1436 21.2427 46.5938C21.3928 46.8193 21.543 46.9697 21.6179 47.0449C21.7681 47.1191 21.8433 47.1943 21.9934 47.2695C22.0684 47.3447 22.2185 47.3447 22.2937 47.3447C22.4438 47.3447 22.5188 47.3447 22.5938 47.4199L22.5938 47.7197Z" fill="#FFFFFF" fill-opacity="1.000000" fill-rule="nonzero"/>
	</g>
</svg>
