<svg width="30.000000" height="30.000000" viewBox="0 0 30 30" fill="none" xmlns="http://www.w3.org/2000/svg" xmlns:xlink="http://www.w3.org/1999/xlink">
	<desc>
			Created with Pixso.
	</desc>
	<defs/>
	<mask id="mask3_160" mask-type="alpha" maskUnits="userSpaceOnUse" x="0.000000" y="0.000000" width="30.000000" height="30.000000">
		<rect id="Bounding box" width="30.000000" height="30.000000" fill="#D9D9D9" fill-opacity="1.000000"/>
	</mask>
	<g mask="url(#mask3_160)">
		<path id="Icon" d="M15 24.3918C17.4456 22.2026 19.3169 20.103 20.6143 18.0925C21.9114 16.082 22.5601 14.3213 22.5601 12.8101C22.5601 10.5312 21.8362 8.65771 20.3882 7.18994C18.9402 5.72192 17.1443 4.98804 15 4.98804C12.8557 4.98804 11.0598 5.72192 9.61182 7.18994C8.16382 8.65771 7.43994 10.5312 7.43994 12.8101C7.43994 14.3213 8.08862 16.082 9.38574 18.0925C10.6831 20.103 12.5544 22.2026 15 24.3918ZM15 26.1753C14.7563 26.1753 14.5129 26.1333 14.2693 26.0493C14.0256 25.9651 13.8054 25.835 13.6082 25.6587C12.4863 24.625 11.4368 23.5605 10.4592 22.4651C9.48169 21.3699 8.63184 20.2749 7.90991 19.1802C7.18799 18.0857 6.6167 17.0007 6.19604 15.9255C5.77539 14.8501 5.56494 13.8118 5.56494 12.8101C5.56494 9.92554 6.49805 7.59009 8.36426 5.8042C10.2305 4.01807 12.4424 3.125 15 3.125C17.5576 3.125 19.7695 4.01807 21.6357 5.8042C23.502 7.59009 24.4351 9.92554 24.4351 12.8101C24.4351 13.8118 24.2246 14.8481 23.804 15.9194C23.3833 16.9907 22.814 18.0757 22.0962 19.1743C21.3782 20.2727 20.5305 21.3677 19.5527 22.4592C18.5752 23.5505 17.5256 24.613 16.4038 25.6465C16.2095 25.8228 15.9888 25.9551 15.7417 26.0432C15.4944 26.1313 15.2473 26.1753 15 26.1753ZM15.0022 14.8318C15.624 14.8318 16.1558 14.6104 16.5974 14.1672C17.0388 13.7244 17.2595 13.1919 17.2595 12.5701C17.2595 11.948 17.0381 11.4163 16.5952 10.9749C16.1523 10.5332 15.6199 10.3125 14.9978 10.3125C14.376 10.3125 13.8442 10.5339 13.4026 10.9768C12.9612 11.4197 12.7405 11.9521 12.7405 12.5742C12.7405 13.1963 12.9619 13.728 13.4048 14.1694C13.8477 14.6108 14.3801 14.8318 15.0022 14.8318Z" fill="#262523" fill-opacity="1.000000" fill-rule="nonzero"/>
	</g>
</svg>
