<svg width="30.000000" height="30.000000" viewBox="0 0 30 30" fill="none" xmlns="http://www.w3.org/2000/svg" xmlns:xlink="http://www.w3.org/1999/xlink">
	<desc>
			Created with Pixso.
	</desc>
	<defs/>
	<mask id="mask3_144" mask-type="alpha" maskUnits="userSpaceOnUse" x="0.000000" y="0.000000" width="30.000000" height="30.000000">
		<rect id="Bounding box" width="30.000000" height="30.000000" fill="#D9D9D9" fill-opacity="1.000000"/>
	</mask>
	<g mask="url(#mask3_144)">
		<path id="Icon" d="M15.9375 14.6201L15.9375 9.6875C15.9375 9.42188 15.8477 9.19922 15.6677 9.01953C15.488 8.83984 15.2654 8.75 14.9995 8.75C14.7339 8.75 14.5112 8.83984 14.3318 9.01953C14.1523 9.19922 14.0625 9.42188 14.0625 9.6875L14.0625 14.9087C14.0625 15.0557 14.0898 15.1982 14.1443 15.3362C14.1987 15.4741 14.2844 15.6018 14.4014 15.7188L18.6826 20C18.8557 20.1731 19.0732 20.2615 19.3352 20.2656C19.5974 20.2695 19.8188 20.1812 20 20C20.1812 19.8188 20.2715 19.5994 20.2715 19.3413C20.2715 19.0833 20.1812 18.8638 20 18.6826L15.9375 14.6201ZM15.002 26.875C13.3596 26.875 11.8159 26.5632 10.3706 25.9399C8.92554 25.3167 7.66846 24.4707 6.59937 23.4021C5.53027 22.3335 4.68408 21.0769 4.0603 19.6326C3.43677 18.188 3.125 16.6445 3.125 15.002C3.125 13.3596 3.43677 11.8159 4.06006 10.3706C4.68335 8.92554 5.5293 7.66846 6.5979 6.59937C7.66626 5.53027 8.92285 4.68408 10.3674 4.0603C11.812 3.43677 13.3555 3.125 14.9978 3.125C16.6404 3.125 18.1841 3.43677 19.6292 4.06006C21.0745 4.68335 22.3315 5.5293 23.4006 6.5979C24.4697 7.66626 25.3159 8.92285 25.9395 10.3674C26.5632 11.812 26.875 13.3555 26.875 14.9978C26.875 16.6404 26.5632 18.1841 25.9399 19.6292C25.3167 21.0745 24.4707 22.3315 23.4021 23.4006C22.3335 24.4697 21.0769 25.3159 19.6326 25.9395C18.188 26.5632 16.6445 26.875 15.002 26.875ZM15 25C17.7708 25 20.1301 24.0261 22.0781 22.0781C24.0261 20.1301 25 17.7708 25 15C25 12.2292 24.0261 9.86987 22.0781 7.92188C20.1301 5.97388 17.7708 5 15 5C12.2292 5 9.86987 5.97388 7.92188 7.92188C5.97388 9.86987 5 12.2292 5 15C5 17.7708 5.97388 20.1301 7.92188 22.0781C9.86987 24.0261 12.2292 25 15 25Z" fill="#262523" fill-opacity="1.000000" fill-rule="nonzero"/>
	</g>
</svg>
