<svg width="24.000000" height="24.000000" viewBox="0 0 24 24" fill="none" xmlns="http://www.w3.org/2000/svg" xmlns:xlink="http://www.w3.org/1999/xlink">
	<desc>
			Created with Pixso.
	</desc>
	<defs/>
	<mask id="mask15_28604" mask-type="alpha" maskUnits="userSpaceOnUse" x="0.000000" y="0.000000" width="24.000000" height="24.000000">
		<rect id="Bounding box" width="24.000000" height="24.000000" fill="#D9D9D9" fill-opacity="1.000000"/>
	</mask>
	<g mask="url(#mask15_28604)">
		<path id="Icon" d="M6.30762 21.5C5.80273 21.5 5.375 21.3252 5.02539 20.9751C4.6748 20.625 4.5 20.1973 4.5 19.6924L4.5 8.30762C4.5 7.80273 4.6748 7.375 5.02539 7.0249C5.375 6.6748 5.80273 6.5 6.30762 6.5L8.25 6.5L8.25 6.25C8.25 5.21387 8.61621 4.33008 9.34766 3.59814C10.0801 2.86621 10.9639 2.5 12 2.5C13.0361 2.5 13.9199 2.86621 14.6523 3.59814C15.3838 4.33008 15.75 5.21387 15.75 6.25L15.75 6.5L17.6924 6.5C18.1973 6.5 18.625 6.6748 18.9746 7.0249C19.3252 7.375 19.5 7.80273 19.5 8.30762L19.5 19.6924C19.5 20.1973 19.3252 20.625 18.9746 20.9751C18.625 21.3252 18.1973 21.5 17.6924 21.5L6.30762 21.5ZM6.30762 20L17.6924 20C17.7695 20 17.8398 19.9678 17.9043 19.9038C17.9678 19.8398 18 19.769 18 19.6924L18 8.30762C18 8.23096 17.9678 8.16016 17.9043 8.09619C17.8398 8.03223 17.7695 8 17.6924 8L15.75 8L15.75 10.25C15.75 10.4629 15.6777 10.6411 15.5342 10.7847C15.3906 10.9282 15.2129 11 15 11C14.7871 11 14.6094 10.9282 14.4658 10.7847C14.3223 10.6411 14.25 10.4629 14.25 10.25L14.25 8L9.75 8L9.75 10.25C9.75 10.4629 9.67773 10.6411 9.53418 10.7847C9.39062 10.9282 9.21289 11 9 11C8.78711 11 8.60938 10.9282 8.46582 10.7847C8.32227 10.6411 8.25 10.4629 8.25 10.25L8.25 8L6.30762 8C6.23047 8 6.16016 8.03223 6.0957 8.09619C6.03223 8.16016 6 8.23096 6 8.30762L6 19.6924C6 19.769 6.03223 19.8398 6.0957 19.9038C6.16016 19.9678 6.23047 20 6.30762 20ZM9.75 6.5L14.25 6.5L14.25 6.25C14.25 5.62305 14.0312 5.09131 13.5947 4.65479C13.1582 4.21826 12.627 4 12 4C11.373 4 10.8408 4.21826 10.4043 4.65479C9.96777 5.09131 9.75 5.62305 9.75 6.25L9.75 6.5Z" fill="#FFFFFF" fill-opacity="1.000000" fill-rule="nonzero"/>
	</g>
</svg>
